<?xml version="1.0" encoding="UTF-8" standalone="no"?>
<!-- Created with Inkscape (http://www.inkscape.org/) -->

<svg
   xmlns:dc="http://purl.org/dc/elements/1.1/"
   xmlns:cc="http://creativecommons.org/ns#"
   xmlns:rdf="http://www.w3.org/1999/02/22-rdf-syntax-ns#"
   xmlns:svg="http://www.w3.org/2000/svg"
   xmlns="http://www.w3.org/2000/svg"
   xmlns:sodipodi="http://sodipodi.sourceforge.net/DTD/sodipodi-0.dtd"
   xmlns:inkscape="http://www.inkscape.org/namespaces/inkscape"
   width="138.06885mm"
   height="67.03614mm"
   viewBox="0 0 138.06885 67.036141"
   version="1.1"
   id="svg832"
   inkscape:version="0.92.3 (2405546, 2018-03-11)"
   sodipodi:docname="gaismasstarsLogoText.svg">
  <defs
     id="defs826" />
  <sodipodi:namedview
     id="base"
     pagecolor="#ffffff"
     bordercolor="#666666"
     borderopacity="1.0"
     inkscape:pageopacity="0.0"
     inkscape:pageshadow="2"
     inkscape:zoom="1.4"
     inkscape:cx="193.33037"
     inkscape:cy="39.992442"
     inkscape:document-units="mm"
     inkscape:current-layer="layer1"
     showgrid="false"
     inkscape:window-width="1920"
     inkscape:window-height="1025"
     inkscape:window-x="0"
     inkscape:window-y="27"
     inkscape:window-maximized="1" />
  <metadata
     id="metadata829">
    <rdf:RDF>
      <cc:Work
         rdf:about="">
        <dc:format>image/svg+xml</dc:format>
        <dc:type
           rdf:resource="http://purl.org/dc/dcmitype/StillImage" />
        <dc:title />
      </cc:Work>
    </rdf:RDF>
  </metadata>
  <g
     inkscape:label="Layer 1"
     inkscape:groupmode="layer"
     id="layer1"
     transform="translate(-39.04787,-111.27867)">
    <path
       inkscape:connector-curvature="0"
       id="path842"
       d="m 97.780297,178.08424 c -0.21911,-0.19507 -2.24791,-0.90155 -4.50843,-1.56994 -4.92964,-1.45762 -12.127936,-4.74569 -15.562417,-7.10869 -8.247652,-5.67451 -15.161144,-17.52323 -15.107036,-25.89124 l 0.01885,-2.91741 1.556528,3.9448 c 0.856094,2.16964 2.229911,5.09385 3.052929,6.49824 1.735707,2.96175 8.868089,10.65517 9.878146,10.65517 0.377222,0 0.989716,-0.7336 1.361127,-1.63024 0.928919,-2.24263 4.869483,-5.75344 7.392163,-6.586 5.38575,-1.77747 12.50636,0.58958 15.778363,5.24507 1.81507,2.58251 2.54599,7.31715 1.56436,10.13309 -0.34202,0.98114 -0.55912,1.84411 -0.48241,1.9177 0.35119,0.33686 10.33665,-0.96062 13.5016,-1.75435 8.39877,-2.10633 16.45466,-6.63702 21.37647,-12.02224 3.37239,-3.68994 6.43892,-9.7338 7.29937,-14.38646 0.73628,-3.98108 0.61123,-4.16518 -3.21882,-4.73953 -1.49917,-0.22482 -2.57639,-0.7343 -2.92336,-1.38263 -1.0971,-2.04992 -0.4604,-6.76155 1.93249,-14.30086 0.29359,-0.92506 0.0426,-1.04596 -2.17097,-1.04596 -1.85953,0 -2.50296,-0.2113 -2.50296,-0.82199 0,-0.49995 0.50995,-0.822 1.30152,-0.822 3.187,0 4.83489,-0.6953 5.38444,-2.27181 0.71241,-2.04357 1.53412,-2.00084 1.53412,0.0799 v 1.64401 h 3.28803 c 1.82668,0 3.28803,0.24356 3.28803,0.54802 0,0.3014 -0.80144,0.5507 -1.78101,0.55403 -0.97958,0.003 -2.66929,0.15297 -3.75498,0.33255 -1.93949,0.32081 -2.00414,0.41563 -3.69904,5.42602 -1.60946,4.7577 -2.34002,10.68812 -1.31409,10.66717 1.07576,-0.022 1.69351,-1.05881 2.28047,-3.82765 0.68102,-3.21254 2.69737,-6.76684 4.2879,-7.55832 0.55044,-0.27391 1.93656,-0.27665 3.21902,-0.007 l 2.25233,0.47473 -0.44744,2.31197 c -0.60022,3.10137 -0.60725,6.42196 -0.0141,6.42196 1.08264,0 1.81913,-3.39261 1.63119,-7.51377 l -0.19468,-4.26833 3.17965,-0.0385 c 1.7488,-0.0211 3.25916,0.10214 3.35637,0.27401 0.0972,0.1718 0.008,1.58538 -0.19818,3.14126 -0.5734,4.32637 -0.14732,6.76121 1.18315,6.76121 1.0527,0 1.0906,-0.29252 0.89907,-6.94015 -0.14529,-5.04318 -0.0211,-7.00014 0.45437,-7.15953 0.38906,-0.13046 0.89405,0.73921 1.24562,2.14511 0.61532,2.46071 0.84195,2.92784 3.42536,7.06033 0.86087,1.3771 1.61778,3.21486 1.682,4.08395 l 0.11679,1.5801 -4.84041,0.59032 c -5.68189,0.69294 -5.81779,0.58854 -6.35118,-4.87828 -0.40913,-4.19332 -1.45084,-4.59394 -1.96617,-0.75617 -0.525,3.90985 -1.5357,6.19426 -3.23239,7.30599 -1.55925,1.02164 -3.06403,0.7523 -3.06403,-0.54844 0,-1.14488 -0.89341,-1.06194 -1.29019,0.11975 -0.17713,0.52744 -0.55362,1.32892 -0.83668,1.78102 -0.28308,0.45209 -1.01975,3.00214 -1.63703,5.66673 -4.14907,17.90938 -20.78275,33.24665 -37.88454,34.93178 -7.817353,0.7703 -9.303563,0.83909 -9.739723,0.4508 z m 49.514493,-44.55317 c 1.84811,-4.54255 2.23293,-6.90824 1.12377,-6.90824 -1.06169,0 -2.85644,3.3797 -3.63161,6.83867 -1.06628,4.75791 0.58181,4.80363 2.50784,0.0696 z m 19.40984,-1.68361 c 0,-0.63376 -1.88737,-4.12862 -2.22963,-4.12862 -0.4325,0 -1.03963,1.97867 -1.05095,3.42503 -0.006,0.70188 0.4333,0.95901 1.63656,0.95901 0.9042,0 1.64402,-0.11496 1.64402,-0.25542 z m -57.18142,33.9821 c -0.68928,-1.79625 -0.3247,-1.94235 4.84688,-1.94235 4.84071,0 5.20606,0.0769 5.20606,1.096 0,0.83992 -0.36535,1.09602 -1.56365,1.09602 -0.85999,0 -3.04108,0.15443 -4.84686,0.34317 -2.78832,0.29143 -3.33741,0.20207 -3.64243,-0.59284 z m -2.37994,-4.47851 c -0.68473,-1.7844 4.40462,-4.27884 10.09443,-4.94758 2.65691,-0.31226 2.88645,-0.2497 2.88645,0.78691 0,0.94464 -0.9497,1.4426 -5.8921,3.08949 -6.80281,2.26678 -6.63946,2.24209 -7.08878,1.07118 z m -1.26726,-4.76328 c 0,-2.27676 7.54247,-8.04473 10.51969,-8.04473 2.1174,0 0.99187,2.09337 -2.43662,4.53182 -5.46463,3.8866 -8.08307,5.02457 -8.08307,3.51291 z m -60.503617,-1.05764 c 0.713518,-1.25423 2.030498,-2.60304 2.541617,-2.60304 0.604585,0 -1.850086,3.21409 -2.487976,3.25772 -0.243838,0.0168 -0.267991,-0.27793 -0.0537,-0.65468 z m -2.517051,-2.51508 c 0,-0.51455 2.430722,-1.7331 3.45083,-1.72994 0.362566,7.5e-4 -0.1482,0.49435 -1.135047,1.09602 -1.994834,1.21626 -2.315783,1.3041 -2.315783,0.63392 z m 32.460069,-2.14902 c -3.128763,-2.81514 -5.607782,-5.9483 -5.607782,-7.08749 0,-0.39356 0.561979,-0.71556 1.248845,-0.71556 2.344637,0 10.017289,8.82741 8.762936,10.08175 -0.701882,0.70191 -1.618346,0.22773 -4.403999,-2.2787 z m 26.541879,1.69572 c -0.88321,-0.8832 -0.18333,-2.44397 2.26561,-5.05243 1.61852,-1.72392 3.09471,-2.80232 3.83606,-2.80232 2.11341,0 1.36797,1.86983 -2.04228,5.12265 -3.42613,3.26797 -3.48434,3.30714 -4.05939,2.7321 z m -21.551062,-5.25901 c -2.262522,-3.93616 -3.651574,-7.71607 -3.05482,-8.31284 0.921988,-0.92198 1.892911,0.17904 4.233014,4.80026 2.440545,4.81958 2.910445,6.90023 1.649345,7.3032 -0.3014,0.0964 -1.573795,-1.60948 -2.827539,-3.79062 z m 17.031349,1.65131 c 0.93072,-5.86259 6.346413,-13.43107 6.346413,-8.86918 0,1.76646 -3.5587,9.59474 -4.779253,10.5132 -1.57458,1.18487 -1.95321,0.78769 -1.56716,-1.64402 z m -54.756223,0.68501 c 0.186273,-0.30141 0.87898,-0.53069 1.539356,-0.50948 1.157583,0.0372 1.161346,0.0554 0.104647,0.50948 -1.508376,0.64818 -2.044596,0.64818 -1.644001,0 z m 4.989264,-2.991 c -5.28528,-5.52374 -8.441395,-12.5918 -8.519713,-19.0798 -0.02842,-2.34686 0.119819,-2.67416 1.437329,-3.17506 0.807907,-0.30717 2.595767,-0.6768 3.973035,-0.82142 2.189564,-0.22989 2.332021,-0.18542 1.134116,0.35397 -0.753511,0.33929 -1.733644,0.79959 -2.178089,1.02291 -1.220257,0.61311 -1.76841,4.2569 -1.114021,7.40537 1.207149,5.8081 5.486935,12.28876 9.478567,14.3529 1.432729,0.7409 1.684052,0.73039 2.611758,-0.10918 1.763413,-1.59587 2.888242,-5.36737 2.457481,-8.23986 -0.21106,-1.40751 -0.513606,-2.89748 -0.672318,-3.31105 -0.499042,-1.30052 -1.752154,-0.821 -2.689308,1.02907 -1.185551,2.34046 -2.408184,3.69905 -3.328847,3.69905 -0.99302,0 1.944153,-5.83155 3.81583,-7.57601 1.189694,-1.10886 1.514313,-1.18186 2.504915,-0.56319 0.625963,0.3909 1.424567,1.40235 1.774719,2.24767 0.828481,2.00015 0.358318,8.22097 -0.844188,11.16947 -0.808524,1.98248 -1.303702,2.40403 -3.983658,3.39126 l -3.060365,1.12735 z m 45.448649,0.47664 c -0.66375,-4.42622 0.71452,-11.73378 2.21312,-11.73378 1.51764,0 0.50253,12.33818 -1.12632,13.69002 -0.55188,0.458 -0.78869,0.0317 -1.0868,-1.95624 z m -7.37216,-0.65962 c -0.29181,-1.11763 -0.59557,-3.38839 -0.67501,-5.0461 -0.12818,-2.67458 -0.0239,-3.01404 0.92662,-3.01404 0.87157,0 1.13871,0.51042 1.43408,2.74002 0.62293,4.70209 0.52379,6.70796 -0.34805,7.04251 -0.57604,0.22106 -0.95894,-0.27198 -1.33764,-1.72239 z m 44.478143,-10.53449 c -0.97957,-0.89113 -1.78103,-1.73396 -1.78103,-1.87295 0,-0.13905 1.23366,-1.88259 2.74145,-3.87466 1.5078,-1.99206 3.29566,-4.59254 3.97304,-5.77885 0.69313,-1.21391 1.65088,-2.15875 2.1906,-2.16113 1.29472,-0.006 1.20551,0.87089 -0.41329,4.06169 -0.78789,1.553 -1.37028,3.6439 -1.37376,4.93205 -0.003,1.22989 -0.15889,3.1609 -0.3457,4.29117 -0.29274,1.77104 -0.53801,2.0528 -1.77498,2.03895 -0.80593,-0.008 -2.2163,-0.72654 -3.21633,-1.63627 z m 3.59354,-3.14744 c 0.18396,-2.53746 -0.1113,-2.79388 -1.63237,-1.41734 -1.65997,1.50224 -1.22669,4.25098 0.61513,3.90233 0.57349,-0.10862 0.90338,-0.91444 1.01724,-2.48499 z m -71.960817,0.82674 c -1.212097,-2.98857 -1.700307,-8.6273 -0.879756,-10.16055 0.545309,-1.01889 3.511769,-2.29466 5.356207,-2.30351 0.350262,-0.001 0.801668,1.045 1.003122,2.32596 0.685215,4.35679 1.402221,6.43908 2.217208,6.43908 0.534804,0 0.806404,-0.59172 0.817543,-1.78103 0.01183,-1.26537 0.15205,-1.54303 0.484305,-0.95901 0.25719,0.45211 0.345004,1.62347 0.195134,2.60303 -0.283889,1.85549 -1.078444,2.20152 -2.862542,1.24671 -0.865532,-0.46323 -1.078326,-0.21683 -1.599211,1.8518 -0.438757,1.74242 -0.935828,2.47587 -1.84263,2.71885 -1.884666,0.50498 -1.879592,0.50846 -2.88938,-1.98133 z m 3.565606,-2.80853 c 0,-5.5569 -0.437999,-7.46657 -1.71251,-7.46657 -0.731295,0 -1.056421,0.43445 -1.127738,1.507 -0.279356,4.20046 0.922939,10.00111 2.0729,10.00111 0.588422,0 0.767348,-0.94234 0.767348,-4.04154 z m 48.988971,-1.74041 c -0.94879,-1.0515 -2.46396,-2.03822 -3.42503,-2.23044 -0.94791,-0.18957 -1.72726,-0.62211 -1.73188,-0.9612 -0.0245,-1.80693 -0.92075,-2.09392 -3.0872,-0.98868 -2.26796,1.15702 -4.02847,0.8288 -4.02847,-0.75107 0,-0.54877 -0.61728,-0.79477 -1.99414,-0.79477 h -1.994143 l 0.29815,-3.28804 c 0.16399,-1.80841 0.23315,-3.28803 0.15371,-3.28803 -0.0795,0 -1.03745,1.34495 -2.12888,2.98877 -1.09144,1.64383 -2.51429,3.27233 -3.16188,3.61892 -1.15864,0.62007 -1.17165,0.57891 -0.81546,-2.57777 l 0.36195,-3.20791 -1.97978,3.15103 c -2.11254,3.36229 -4.0821,4.28696 -4.08544,1.91801 -0.003,-2.10236 2.34452,-9.27134 3.13526,-9.57477 1.36913,-0.52539 1.40957,0.32772 0.17237,3.63597 -0.67383,1.80179 -1.13161,3.55657 -1.01729,3.89951 0.11433,0.34295 1.30875,-0.99991 2.6543,-2.98413 3.60288,-5.31295 4.51161,-4.73716 2.95516,1.87242 -0.21124,0.89698 0.18052,0.51857 1.1347,-1.09603 1.76045,-2.97902 4.06246,-5.48005 5.043913,-5.48005 0.98184,0 0.90684,0.92786 -0.37652,4.65804 -2.060633,5.98929 -1.413093,6.07023 4.38404,0.548 4.83221,-4.60307 6.01995,-4.96834 8.73279,-2.68562 l 1.69281,1.42439 -1.90276,2.59207 c -2.13205,2.90445 -3.31146,5.51923 -2.48945,5.51923 0.88085,0 6.26292,-3.44769 6.7992,-4.35549 0.84479,-1.43002 4.53659,-4.9606 5.18713,-4.9606 0.9881,0 0.71569,1.01886 -0.926,3.4633 -0.86957,1.2948 -1.96273,4.14009 -2.51431,6.54436 -0.66058,2.8794 -1.30267,4.42854 -1.98753,4.79504 -1.29208,0.6915 -1.08036,0.78868 -3.05932,-1.40446 z m 2.94664,-2.98613 c 0.58907,-2.32079 0.30332,-2.61935 -1.55512,-1.62474 -1.19463,0.63934 -1.38981,2.17172 -0.40237,3.15915 1.04731,1.04731 1.36548,0.79791 1.95749,-1.53441 z m -8.1331,-5.16911 c 1.22687,-1.30989 2.84226,-4.26536 2.51192,-4.5957 -0.12355,-0.12356 -1.31038,0.30078 -2.63726,0.94312 -1.78501,0.86412 -2.79019,1.8618 -3.86464,3.83592 -0.79866,1.46744 -1.45212,2.83542 -1.45212,3.03996 0,0.57001 4.24307,-1.94311 5.4421,-3.2233 z m 64.9766,7.90913 c 1.52285,-0.65438 3.01403,-0.65438 3.01403,0 0,0.30142 -0.92477,0.53067 -2.05502,0.5095 -1.64851,-0.0309 -1.83822,-0.13173 -0.95901,-0.5095 z M 73.063153,125.56223 c -1.357473,-3.15552 -1.583351,-7.97713 -0.395077,-8.43312 1.224028,-0.46969 1.423073,0.11989 1.431974,4.242 0.01014,4.69652 0.401909,5.56118 2.00944,4.43523 0.733145,-0.51352 1.274627,-1.68686 1.513478,-3.27959 0.204546,-1.364 0.571549,-2.48 0.815569,-2.48 0.244017,0 0.615756,-1.9728 0.826091,-4.38404 0.334494,-3.8347 0.515044,-4.38404 1.440766,-4.38404 0.932892,0 1.058383,0.40605 1.058632,3.42503 1.64e-4,2.09758 0.42496,4.54237 1.096021,6.30794 0.60264,1.5856 1.09572,3.59668 1.09572,4.46908 v 1.58617 l -3.166876,-0.28714 c -2.497852,-0.22651 -3.322419,-0.0998 -3.903151,0.59994 -1.353636,1.63105 -2.592468,1.04205 -3.822587,-1.81746 z m 9.248603,-0.87503 c 0,-1.07195 -1.581048,-4.88609 -1.895179,-4.57195 -0.130231,0.13018 -0.467878,1.26532 -0.750322,2.5224 -0.433224,1.9281 -0.373637,2.32289 0.380965,2.52382 1.74392,0.46438 2.264536,0.35534 2.264536,-0.47427 z m 89.324914,3.08823 c 0,-0.76 3.27744,-2.98988 3.72973,-2.53761 0.36935,0.36937 -0.84267,1.48067 -2.77073,2.54044 -0.61563,0.33838 -0.959,0.33737 -0.959,-0.003 z m 0.30649,-3.75563 c 0.56422,-0.97956 1.21926,-1.78102 1.45569,-1.78102 0.83531,0 0.41233,0.92094 -1.02583,2.23349 l -1.45568,1.32855 z M 71.44415,113.93604 c 0.100829,-0.70896 0.627519,-1.36122 1.185009,-1.46751 0.776907,-0.14814 0.962528,0.0968 0.822009,1.0848 -0.100829,0.70896 -0.627539,1.36122 -1.185018,1.46753 -0.77692,0.14813 -0.962524,-0.0968 -0.822,-1.08482 z"
       style="fill:#000000;stroke-width:0.54800564"
       inkscape:export-xdpi="101.95753"
       inkscape:export-ydpi="101.95753" />
  </g>
</svg>
