<?xml version="1.0" encoding="UTF-8" standalone="no"?>
<!-- Created with Inkscape (http://www.inkscape.org/) -->

<svg
   xmlns:dc="http://purl.org/dc/elements/1.1/"
   xmlns:cc="http://creativecommons.org/ns#"
   xmlns:rdf="http://www.w3.org/1999/02/22-rdf-syntax-ns#"
   xmlns:svg="http://www.w3.org/2000/svg"
   xmlns="http://www.w3.org/2000/svg"
   xmlns:sodipodi="http://sodipodi.sourceforge.net/DTD/sodipodi-0.dtd"
   xmlns:inkscape="http://www.inkscape.org/namespaces/inkscape"
   width="32"
   height="32"
   viewBox="0 0 8.4666667 8.4666667"
   version="1.1"
   id="svg2046"
   sodipodi:docname="favicon36x36.svg"
   inkscape:version="0.92.3 (2405546, 2018-03-11)">
  <defs
     id="defs2040">
    <clipPath
       clipPathUnits="userSpaceOnUse"
       id="clipPath851">
      <path
         style="fill:#000000;stroke:#000000;stroke-width:1px;stroke-linecap:butt;stroke-linejoin:miter;stroke-opacity:1"
         d="m 819.43793,733.65487 19.6038,-46.23538 c 0,0 48.08479,-11.46637 50.67398,-11.46637 2.58918,0 48.82456,5.54824 50.30409,6.28801 1.47953,0.73976 38.46784,10.35672 38.46784,10.35672 l 22.56286,-3.32894 -0.3699,71.38742 c 0,0 -44.01606,34.39913 -52.15349,35.13889 -8.13743,0.73977 -119.10234,-1.10965 -120.95176,-2.58918 -1.84941,-1.47953 -8.13742,-59.55117 -8.13742,-59.55117 z"
         id="path853"
         inkscape:connector-curvature="0" />
    </clipPath>
  </defs>
  <sodipodi:namedview
     id="base"
     pagecolor="#ffffff"
     bordercolor="#666666"
     borderopacity="1.0"
     inkscape:pageopacity="0.0"
     inkscape:pageshadow="2"
     inkscape:zoom="0.49497475"
     inkscape:cx="-479.12784"
     inkscape:cy="-79.276642"
     inkscape:document-units="mm"
     inkscape:current-layer="layer1"
     showgrid="false"
     units="px"
     inkscape:window-width="1920"
     inkscape:window-height="1025"
     inkscape:window-x="0"
     inkscape:window-y="27"
     inkscape:window-maximized="1" />
  <metadata
     id="metadata2043">
    <rdf:RDF>
      <cc:Work
         rdf:about="">
        <dc:format>image/svg+xml</dc:format>
        <dc:type
           rdf:resource="http://purl.org/dc/dcmitype/StillImage" />
        <dc:title></dc:title>
      </cc:Work>
    </rdf:RDF>
  </metadata>
  <g
     inkscape:label="Layer 1"
     inkscape:groupmode="layer"
     id="layer1"
     transform="translate(0,-288.53333)">
    <path
       transform="matrix(0.05209907,0,0,0.05209907,-43.189544,255.45848)"
       style="fill:#000000"
       d="m 903.19988,755.82623 c -0.39983,-0.35596 -4.10197,-1.64514 -8.22697,-2.86484 -8.99559,-2.65986 -22.13103,-8.65993 -28.39827,-12.97191 -15.05031,-10.35489 -27.66604,-31.97639 -27.56731,-47.24631 l 0.0344,-5.32368 2.84035,7.19845 c 1.5622,3.95916 4.06915,9.29525 5.57102,11.85799 3.16729,5.40458 16.18245,19.44356 18.0256,19.44356 0.68835,0 1.80605,-1.3387 2.48378,-2.97488 1.6951,-4.09234 8.88584,-10.49888 13.48922,-12.01813 9.82793,-3.24351 22.8216,1.07587 28.79234,9.5712 3.31211,4.71255 4.64592,13.35233 2.85463,18.49084 -0.62414,1.79041 -1.02027,3.36515 -0.88029,3.49942 0.64084,0.61471 18.86229,-1.75292 24.63768,-3.20133 15.32608,-3.84364 30.0265,-12.11123 39.00776,-21.93816 6.15394,-6.7334 11.74975,-17.76224 13.31993,-26.25242 1.34354,-7.26464 1.11536,-7.60062 -5.8737,-8.64869 -2.73573,-0.41025 -4.70139,-1.33992 -5.33456,-2.523 -2.00196,-3.7407 -0.84014,-12.33848 3.52639,-26.0962 0.53576,-1.68803 0.0778,-1.90865 -3.9616,-1.90865 -3.39324,0 -4.56739,-0.38561 -4.56739,-1.5 0,-0.91229 0.93056,-1.5 2.375,-1.5 5.81564,0 8.82272,-1.26873 9.82558,-4.14556 1.29998,-3.7291 2.79942,-3.65114 2.79942,0.14556 v 3 h 6 c 3.33333,0 6,0.44444 6,1 0,0.55 -1.4625,1.00495 -3.25,1.011 -1.7875,0.006 -4.87094,0.27913 -6.85209,0.60684 -3.53915,0.58542 -3.6571,0.75845 -6.75,9.9014 -2.93692,8.68185 -4.27004,19.50367 -2.39791,19.46544 1.96303,-0.0401 3.09027,-1.93211 4.16135,-6.98468 1.24272,-5.86227 4.9222,-12.34812 7.82457,-13.79242 1.00446,-0.49986 3.53386,-0.50483 5.87411,-0.0115 l 4.11008,0.8663 -0.8165,4.21884 c -1.0953,5.65941 -1.1082,11.71883 -0.025,11.71883 1.9755,0 3.3195,-6.19084 2.9765,-13.71113 l -0.3552,-7.78887 5.8022,-0.07 c 3.1912,-0.0385 5.9474,0.18648 6.1247,0.5 0.1774,0.31352 0.015,2.89301 -0.3616,5.7322 -1.0463,7.89473 -0.2688,12.33784 2.159,12.33784 1.921,0 1.9901,-0.53382 1.6406,-12.66441 -0.2651,-9.20276 -0.038,-12.77381 0.8292,-13.06468 0.7099,-0.238 1.6314,1.3489 2.2729,3.91441 1.1229,4.49029 1.5365,5.34271 6.2506,12.88366 1.571,2.51295 2.9522,5.86651 3.0694,7.45237 l 0.213,2.88339 -8.8328,1.0772 c -10.3683,1.26448 -10.6163,1.074 -11.5896,-8.90186 -0.7466,-7.65197 -2.6475,-8.38304 -3.5879,-1.37986 -0.958,7.13468 -2.8023,11.30327 -5.8984,13.33195 -2.84537,1.86431 -5.59131,1.37281 -5.59131,-1.00079 0,-2.08919 -1.63027,-1.93781 -2.35434,0.21862 -0.32318,0.9625 -1.01021,2.425 -1.52675,3.25 -0.51653,0.825 -1.8608,5.4783 -2.98726,10.34067 -7.57118,32.68099 -37.92436,60.66842 -69.13165,63.74347 -14.26509,1.40563 -16.97714,1.53116 -17.77303,0.8226 z m 90.35398,-81.30059 c 3.37243,-8.28925 4.07467,-12.60615 2.05066,-12.60615 -1.93735,0 -5.21241,6.16726 -6.62695,12.47919 -1.94573,8.68224 1.06168,8.76567 4.57629,0.12696 z m 35.41904,-3.07223 c 0,-1.15649 -3.444,-7.53392 -4.0686,-7.53392 -0.7892,0 -1.8971,3.61069 -1.9177,6.25 -0.01,1.28081 0.7906,1.75 2.9863,1.75 1.65,0 3,-0.20974 3,-0.46608 z m -104.34457,62.0105 c -1.25781,-3.27781 -0.59252,-3.54442 8.84458,-3.54442 8.83333,0 9.5,0.14035 9.5,2 0,1.5327 -0.66667,2 -2.85331,2 -1.56932,0 -5.54938,0.2818 -8.84458,0.62621 -5.0881,0.53181 -6.09007,0.36874 -6.64669,-1.08179 z m -4.3429,-8.17238 c -1.24951,-3.2562 8.03752,-7.80806 18.42028,-9.02835 4.84835,-0.56983 5.2672,-0.45564 5.2672,1.43595 0,1.72377 -1.733,2.63246 -10.75188,5.63768 -12.41377,4.13644 -12.11567,4.0914 -12.9356,1.95472 z m -2.31252,-8.69205 c 0,-4.15463 13.76352,-14.67999 19.19634,-14.67999 3.86383,0 1.80994,3.81997 -4.44634,8.26962 -9.97184,7.09227 -14.75,9.16886 -14.75,6.41037 z M 807.566,714.66949 c 1.30203,-2.28871 3.70527,-4.75 4.63795,-4.75 1.10323,0 -3.37604,5.86506 -4.54006,5.94467 -0.44496,0.0304 -0.48901,-0.50717 -0.0979,-1.19467 z M 802.97291,710.08 c 0,-0.93897 4.43556,-3.16256 6.29705,-3.15678 0.66162,0.002 -0.27043,0.90206 -2.07122,2 -3.64016,2.21941 -4.22583,2.37973 -4.22583,1.15678 z m 59.23308,-3.92155 c -5.70937,-5.13707 -10.23308,-10.85444 -10.23308,-12.93324 0,-0.71815 1.0255,-1.30572 2.27889,-1.30572 4.27848,0 18.27955,16.10822 15.9906,18.39717 -1.28081,1.28082 -2.95315,0.41551 -8.03641,-4.15821 z m 48.43359,3.09437 c -1.61168,-1.61168 -0.33454,-4.45977 4.13429,-9.21967 2.95344,-3.14581 5.6472,-5.11366 7,-5.11366 3.85657,0 2.49628,3.41203 -3.72672,9.34778 -6.252,5.96339 -6.35823,6.03489 -7.40757,4.98555 z m -39.32635,-9.59666 c -4.12865,-7.18268 -6.66339,-14.08027 -5.57443,-15.16924 1.68244,-1.68244 3.45418,0.32673 7.7244,8.75952 4.45349,8.79472 5.31095,12.59152 3.00971,13.32685 -0.55,0.17575 -2.87186,-2.93696 -5.15968,-6.91713 z m 31.07878,3.01333 c 1.69839,-10.69805 11.5809,-24.50899 11.5809,-16.18446 0,3.22341 -6.49389,17.50846 -8.72113,19.18446 -2.87332,2.16217 -3.56423,1.43737 -2.85977,-3 z m -99.9191,1.25 c 0.33992,-0.55 1.60398,-0.96838 2.80902,-0.92972 2.11236,0.0678 2.11921,0.10112 0.19098,0.92972 -2.75249,1.18278 -3.731,1.18278 -3,0 z m 9.10441,-5.45797 c -9.64457,-10.07971 -15.40383,-22.9775 -15.54677,-34.81679 -0.0517,-4.28256 0.21866,-4.8798 2.62284,-5.79386 1.47427,-0.56052 4.73677,-1.23502 7.25,-1.4989 3.99551,-0.41951 4.25548,-0.33837 2.06952,0.64591 -1.375,0.61913 -3.16355,1.45909 -3.97455,1.86658 -2.22673,1.11883 -3.22701,7.76799 -2.03289,13.51333 2.20283,10.59862 10.01257,22.42451 17.2965,26.19117 2.61443,1.35198 3.07304,1.33281 4.76593,-0.19924 3.21788,-2.91214 5.27045,-9.79438 4.4844,-15.03613 -0.38515,-2.56839 -0.93723,-5.28727 -1.22682,-6.04195 -0.91068,-2.37319 -3.19737,-1.49818 -4.90748,1.87785 -2.16336,4.27082 -4.39443,6.75 -6.07447,6.75 -1.81207,0 3.5477,-10.64139 6.96311,-13.8247 2.17097,-2.02344 2.76332,-2.15662 4.57098,-1.02772 1.14224,0.71334 2.59955,2.55904 3.23849,4.10156 1.51182,3.64986 0.65387,15.00163 -1.54044,20.38203 -1.4754,3.61765 -2.37901,4.38689 -7.26938,6.18837 l -5.58456,2.0572 z m 82.93464,0.86978 c -1.21122,-8.07698 1.30388,-21.41181 4.0385,-21.41181 2.7694,0 0.91703,22.51471 -2.05532,24.98154 -1.00705,0.83578 -1.43918,0.0579 -1.98318,-3.56973 z m -13.4527,-1.20367 c -0.53251,-2.03948 -1.08681,-6.18314 -1.23178,-9.20814 -0.2339,-4.88057 -0.0435,-5.5 1.69092,-5.5 1.59043,0 2.0779,0.93139 2.6169,5 1.13672,8.58035 0.95582,12.24066 -0.63512,12.85116 -1.05115,0.40336 -1.74987,-0.49633 -2.44092,-3.14302 z m 81.16365,-19.22336 c -1.7875,-1.62613 -3.25,-3.1641 -3.25,-3.41773 0,-0.25363 2.25116,-3.43534 5.00258,-7.07047 2.75142,-3.63513 6.01392,-8.38049 7.25,-10.54525 1.26484,-2.21512 3.01253,-3.9393 3.99742,-3.94363 2.36257,-0.0104 2.1998,1.58919 -0.75419,7.41177 -1.43774,2.83393 -2.50048,6.64937 -2.50682,9 -0.006,2.24429 -0.28993,5.76803 -0.63084,7.83053 -0.53418,3.23179 -0.98177,3.74594 -3.23899,3.72068 -1.47066,-0.0165 -4.04429,-1.32578 -5.86916,-2.9859 z m 6.5575,-5.74341 c 0.3357,-4.63037 -0.20317,-5.09826 -2.97876,-2.58639 -3.02909,2.74129 -2.23841,7.75721 1.1225,7.12096 1.04651,-0.19812 1.64848,-1.66863 1.85626,-4.53457 z m -131.31403,1.50863 c -2.21182,-5.45354 -3.10272,-15.74309 -1.60535,-18.54096 0.99506,-1.85927 6.40826,-4.18732 9.77398,-4.20347 0.63916,-0.003 1.46289,1.90693 1.83052,4.24443 1.25037,7.95028 2.55874,11.75 4.04592,11.75 0.97592,0 1.47156,-1.07975 1.49187,-3.25 0.0216,-2.30903 0.27747,-2.81571 0.88375,-1.75 0.46934,0.825 0.62958,2.9625 0.35609,4.75 -0.51804,3.3859 -1.96792,4.01735 -5.22357,2.27498 -1.57942,-0.84528 -1.96772,-0.39566 -2.91823,3.37918 -0.80062,3.17955 -1.70771,4.51799 -3.36243,4.96136 -3.43914,0.92149 -3.42988,0.92784 -5.27255,-3.61552 z m 6.50653,-5.125 c 0,-10.14022 -0.79926,-13.625 -3.125,-13.625 -1.33445,0 -1.92773,0.7928 -2.05789,2.75 -0.50976,7.66498 1.68417,18.25 3.78263,18.25 1.07377,0 1.40026,-1.71959 1.40026,-7.375 z m 89.39504,-3.1759 c -1.73138,-1.91881 -4.49627,-3.71935 -6.25,-4.0701 -1.72977,-0.34595 -3.15193,-1.13525 -3.16035,-1.754 -0.0449,-3.29729 -1.68018,-3.821 -5.63351,-1.80416 -4.1386,2.11135 -7.35118,1.51241 -7.35118,-1.37053 0,-1.00138 -1.1264,-1.45031 -3.63889,-1.45031 h -3.63889 l 0.54406,-6 c 0.29924,-3.3 0.42545,-6 0.28047,-6 -0.14497,0 -1.89312,2.45425 -3.88478,5.4539 -1.99165,2.99964 -4.58805,5.97135 -5.76977,6.60379 -2.11427,1.13152 -2.13804,1.05641 -1.48807,-4.70391 l 0.66051,-5.85378 -3.61273,5.75 c -3.85494,6.1355 -7.44899,7.82283 -7.45508,3.5 -0.005,-3.83641 4.27828,-16.91834 5.72121,-17.47205 2.49839,-0.95872 2.57219,0.59802 0.31454,6.63492 -1.22959,3.2879 -2.06495,6.49003 -1.85634,7.11583 0.2086,0.62581 2.38821,-1.82464 4.84357,-5.44544 6.57451,-9.69508 8.23277,-8.6444 5.39254,3.41674 -0.38545,1.63685 0.32944,0.94633 2.0706,-2 3.21249,-5.43609 7.41318,-10 9.20414,-10 1.79167,0 1.65481,1.69314 -0.68709,8.5 -3.76022,10.92925 -2.5786,11.07695 8,1 8.81782,-8.39968 10.9852,-9.06622 15.93559,-4.90075 l 3.08903,2.59925 -3.47215,4.73001 c -3.89056,5.30002 -6.04274,10.07149 -4.54274,10.07149 1.60737,0 11.42857,-6.29135 12.40718,-7.9479 1.54156,-2.60949 8.27835,-9.0521 9.46544,-9.0521 1.8031,0 1.306,1.8592 -1.68975,6.31982 -1.58682,2.36276 -3.58159,7.55485 -4.5881,11.94214 -1.20542,5.25431 -2.37715,8.08118 -3.62686,8.75 -2.35778,1.26185 -1.97146,1.4392 -5.5826,-2.56286 z m 5.37699,-5.4491 c 1.07495,-4.23495 0.55348,-4.77976 -2.83777,-2.96482 -2.17996,1.16668 -2.53612,3.96295 -0.73426,5.76482 1.91114,1.91113 2.49174,1.45602 3.57203,-2.8 z m -14.84126,-9.43257 c 2.23877,-2.3903 5.18655,-7.78344 4.58375,-8.38624 -0.22557,-0.22558 -2.39118,0.54887 -4.81246,1.72099 -3.25732,1.57684 -5.09155,3.39744 -7.0522,6.9998 -1.45742,2.67777 -2.64986,5.17407 -2.64986,5.54733 0,1.04016 7.74278,-3.5458 9.93077,-5.88188 z m 118.56922,14.43257 c 2.7789,-1.19413 5.5,-1.19413 5.5,0 0,0.55 -1.6875,0.96837 -3.75,0.92971 -3.0082,-0.0564 -3.3544,-0.24029 -1.75,-0.92971 z M 858.09605,659.9841 c -2.47709,-5.75817 -2.88927,-14.55664 -0.72091,-15.38872 2.23361,-0.85712 2.59682,0.21884 2.61308,7.74077 0.0185,8.57022 0.73339,10.14808 3.66681,8.09343 1.33785,-0.93706 2.32594,-3.0782 2.76178,-5.98459 0.37326,-2.48903 1.04297,-4.5255 1.48825,-4.5255 0.44528,0 1.12363,-3.6 1.50745,-8 0.6104,-6.99755 0.93985,-8 2.62912,-8 1.70231,0 1.93134,0.74097 1.93178,6.25 3.1e-4,3.82766 0.77546,8.28891 2,11.51072 1.09973,2.8934 1.9995,6.56323 1.9995,8.15517 v 2.89445 l -5.77893,-0.52401 c -4.55806,-0.41332 -6.06275,-0.18202 -7.12244,1.09482 -2.47013,2.97632 -4.73075,1.9015 -6.97549,-3.31654 z m 16.87686,-1.59673 c 0,-1.95609 -2.8851,-8.91612 -3.45833,-8.34289 -0.23764,0.23764 -0.85378,2.30894 -1.36919,4.60288 -0.79054,3.5184 -0.68179,4.23879 0.6952,4.60546 3.1823,0.8474 4.13232,0.64843 4.13232,-0.86545 z m 162.99999,5.63539 c 0,-1.38686 5.9807,-5.45594 6.806,-4.6306 0.674,0.67401 -1.5377,2.7019 -5.056,4.63578 -1.1234,0.61749 -1.75,0.61564 -1.75,-0.005 z m 0.5593,-6.85327 c 1.0296,-1.7875 2.2249,-3.25 2.6563,-3.25 1.5243,0 0.7525,1.68053 -1.8719,4.07568 l -2.6563,2.42432 z M 855.1417,638.76866 c 0.184,-1.2937 1.14511,-2.48394 2.16242,-2.67792 1.41772,-0.27034 1.75642,0.17665 1.5,1.97957 -0.184,1.2937 -1.14511,2.48394 -2.16242,2.67792 -1.41772,0.27034 -1.75642,-0.17665 -1.5,-1.97957 z"
       id="path819"
       inkscape:connector-curvature="0"
       clip-path="url(#clipPath851)" />
  </g>
</svg>
